<mxfile host="app.diagrams.net" agent="Mozilla/5.0 (Windows NT 10.0; Win64; x64) AppleWebKit/537.36 (KHTML, like Gecko) Chrome/132.0.0.0 Safari/537.36 Edg/132.0.0.0" version="26.0.10">
  <diagram name="Página-1" id="29fRU0D2EKk2_lMciX3B">
    <mxGraphModel dx="1226" dy="665" grid="1" gridSize="10" guides="1" tooltips="1" connect="1" arrows="1" fold="1" page="1" pageScale="1" pageWidth="850" pageHeight="1100" math="0" shadow="0">
      <root>
        <mxCell id="0" />
        <mxCell id="1" parent="0" />
        <mxCell id="zTSHvQ6Jk7XKGaeKsk7d-3" value="" style="edgeStyle=orthogonalEdgeStyle;rounded=0;orthogonalLoop=1;jettySize=auto;html=1;" edge="1" parent="1" source="zTSHvQ6Jk7XKGaeKsk7d-1" target="zTSHvQ6Jk7XKGaeKsk7d-2">
          <mxGeometry relative="1" as="geometry" />
        </mxCell>
        <mxCell id="zTSHvQ6Jk7XKGaeKsk7d-1" value="Inicio" style="ellipse;whiteSpace=wrap;html=1;" vertex="1" parent="1">
          <mxGeometry x="355" y="40" width="120" height="80" as="geometry" />
        </mxCell>
        <mxCell id="zTSHvQ6Jk7XKGaeKsk7d-8" value="" style="edgeStyle=orthogonalEdgeStyle;rounded=0;orthogonalLoop=1;jettySize=auto;html=1;" edge="1" parent="1" source="zTSHvQ6Jk7XKGaeKsk7d-2" target="zTSHvQ6Jk7XKGaeKsk7d-4">
          <mxGeometry relative="1" as="geometry" />
        </mxCell>
        <mxCell id="zTSHvQ6Jk7XKGaeKsk7d-2" value="Ingresa un valor numérico." style="shape=document;whiteSpace=wrap;html=1;boundedLbl=1;" vertex="1" parent="1">
          <mxGeometry x="355" y="150" width="120" height="80" as="geometry" />
        </mxCell>
        <mxCell id="zTSHvQ6Jk7XKGaeKsk7d-10" value="" style="edgeStyle=orthogonalEdgeStyle;rounded=0;orthogonalLoop=1;jettySize=auto;html=1;" edge="1" parent="1" source="zTSHvQ6Jk7XKGaeKsk7d-4" target="zTSHvQ6Jk7XKGaeKsk7d-9">
          <mxGeometry relative="1" as="geometry" />
        </mxCell>
        <mxCell id="zTSHvQ6Jk7XKGaeKsk7d-4" value="Leer N" style="shape=parallelogram;perimeter=parallelogramPerimeter;whiteSpace=wrap;html=1;fixedSize=1;" vertex="1" parent="1">
          <mxGeometry x="355" y="270" width="120" height="60" as="geometry" />
        </mxCell>
        <mxCell id="zTSHvQ6Jk7XKGaeKsk7d-14" value="NO" style="edgeStyle=orthogonalEdgeStyle;rounded=0;orthogonalLoop=1;jettySize=auto;html=1;" edge="1" parent="1" source="zTSHvQ6Jk7XKGaeKsk7d-9" target="zTSHvQ6Jk7XKGaeKsk7d-13">
          <mxGeometry relative="1" as="geometry" />
        </mxCell>
        <mxCell id="zTSHvQ6Jk7XKGaeKsk7d-26" value="SI" style="edgeStyle=orthogonalEdgeStyle;rounded=0;orthogonalLoop=1;jettySize=auto;html=1;" edge="1" parent="1" source="zTSHvQ6Jk7XKGaeKsk7d-9">
          <mxGeometry relative="1" as="geometry">
            <mxPoint x="230" y="470" as="targetPoint" />
            <Array as="points">
              <mxPoint x="300" y="420" />
              <mxPoint x="235" y="421" />
            </Array>
          </mxGeometry>
        </mxCell>
        <mxCell id="zTSHvQ6Jk7XKGaeKsk7d-9" value="N &amp;gt;0" style="strokeWidth=2;html=1;shape=mxgraph.flowchart.decision;whiteSpace=wrap;" vertex="1" parent="1">
          <mxGeometry x="365" y="370" width="100" height="100" as="geometry" />
        </mxCell>
        <mxCell id="zTSHvQ6Jk7XKGaeKsk7d-18" value="" style="edgeStyle=orthogonalEdgeStyle;rounded=0;orthogonalLoop=1;jettySize=auto;html=1;" edge="1" parent="1" source="zTSHvQ6Jk7XKGaeKsk7d-13">
          <mxGeometry relative="1" as="geometry">
            <mxPoint x="590" y="750" as="targetPoint" />
          </mxGeometry>
        </mxCell>
        <mxCell id="zTSHvQ6Jk7XKGaeKsk7d-13" value="El número es negativo." style="shape=document;whiteSpace=wrap;html=1;boundedLbl=1;strokeWidth=2;" vertex="1" parent="1">
          <mxGeometry x="530" y="480" width="120" height="80" as="geometry" />
        </mxCell>
        <mxCell id="zTSHvQ6Jk7XKGaeKsk7d-29" value="" style="edgeStyle=orthogonalEdgeStyle;rounded=0;orthogonalLoop=1;jettySize=auto;html=1;" edge="1" parent="1" source="zTSHvQ6Jk7XKGaeKsk7d-15">
          <mxGeometry relative="1" as="geometry">
            <mxPoint x="230" y="750" as="targetPoint" />
          </mxGeometry>
        </mxCell>
        <mxCell id="zTSHvQ6Jk7XKGaeKsk7d-15" value="El número es Positivo." style="shape=document;whiteSpace=wrap;html=1;boundedLbl=1;strokeWidth=2;" vertex="1" parent="1">
          <mxGeometry x="170" y="470" width="120" height="80" as="geometry" />
        </mxCell>
      </root>
    </mxGraphModel>
  </diagram>
</mxfile>
